<?xml version="1.0" encoding="UTF-8"?>
<svg xmlns="http://www.w3.org/2000/svg" xmlns:xlink="http://www.w3.org/1999/xlink" width="64pt" height="64pt" viewBox="0 0 64 64" version="1.1">
<g id="surface1">
<path style=" stroke:none;fill-rule:nonzero;fill:rgb(5.098039%,17.647059%,38.431373%);fill-opacity:1;" d="M 51.613281 12.386719 C 55.027344 12.386719 57.808594 9.609375 57.808594 6.195312 C 57.808594 2.777344 55.027344 0 51.613281 0 C 48.199219 0 45.421875 2.777344 45.421875 6.195312 C 45.421875 9.609375 48.199219 12.386719 51.613281 12.386719 Z M 51.613281 2.066406 C 53.890625 2.066406 55.742188 3.917969 55.742188 6.195312 C 55.742188 8.472656 53.890625 10.324219 51.613281 10.324219 C 49.335938 10.324219 47.484375 8.472656 47.484375 6.195312 C 47.484375 3.917969 49.335938 2.066406 51.613281 2.066406 Z M 51.613281 2.066406 "/>
<path style=" stroke:none;fill-rule:nonzero;fill:rgb(5.098039%,17.647059%,38.431373%);fill-opacity:1;" d="M 61.929688 18.460938 C 61.902344 18.230469 61.796875 18.015625 61.632812 17.851562 L 58.535156 14.753906 C 58.34375 14.5625 58.082031 14.453125 57.808594 14.453125 L 45.421875 14.453125 C 45.144531 14.453125 44.882812 14.5625 44.691406 14.753906 L 41.59375 17.851562 C 41.429688 18.015625 41.324219 18.230469 41.296875 18.460938 L 39.234375 36.007812 C 39.199219 36.300781 39.292969 36.59375 39.488281 36.816406 C 39.683594 37.035156 39.964844 37.160156 40.257812 37.160156 L 45.292969 37.160156 L 42.328125 62.847656 C 42.296875 63.140625 42.386719 63.433594 42.585938 63.65625 C 42.78125 63.875 43.0625 64 43.355469 64 L 49.550781 64 C 50.085938 64 50.53125 63.589844 50.578125 63.054688 L 51.613281 50.625 L 52.648438 63.054688 C 52.695312 63.589844 53.140625 64 53.679688 64 L 59.871094 64 C 60.164062 64 60.445312 63.875 60.640625 63.65625 C 60.839844 63.4375 60.929688 63.140625 60.898438 62.851562 L 57.933594 37.160156 L 62.96875 37.160156 C 63.261719 37.160156 63.542969 37.035156 63.738281 36.816406 C 63.933594 36.597656 64.027344 36.300781 63.992188 36.007812 Z M 57.808594 35.097656 L 57.808594 20.644531 L 55.742188 20.644531 L 55.742188 36.128906 C 55.742188 36.167969 55.746094 36.207031 55.75 36.246094 L 58.714844 61.9375 L 54.628906 61.9375 L 52.644531 38.109375 C 52.597656 37.574219 52.148438 37.160156 51.613281 37.160156 C 51.078125 37.160156 50.628906 37.574219 50.585938 38.109375 L 48.597656 61.9375 L 44.515625 61.9375 L 47.476562 36.246094 C 47.480469 36.207031 47.484375 36.167969 47.484375 36.128906 L 47.484375 20.644531 L 45.421875 20.644531 L 45.421875 35.097656 L 41.421875 35.097656 L 43.304688 19.058594 L 45.847656 16.515625 L 57.378906 16.515625 L 59.917969 19.058594 L 61.808594 35.097656 Z M 57.808594 35.097656 "/>
<path style=" stroke:none;fill-rule:nonzero;fill:rgb(5.098039%,17.647059%,38.431373%);fill-opacity:1;" d="M 35.828125 32.304688 L 33.761719 30.238281 C 33.570312 30.042969 33.304688 29.9375 33.03125 29.9375 L 22.710938 29.9375 C 22.4375 29.9375 22.171875 30.042969 21.980469 30.238281 L 19.917969 32.304688 C 19.769531 32.445312 19.671875 32.628906 19.632812 32.832031 L 17.570312 43.152344 C 17.507812 43.457031 17.585938 43.769531 17.785156 44.007812 C 17.980469 44.25 18.273438 44.386719 18.582031 44.386719 L 22.710938 44.386719 L 22.710938 45.300781 L 18.609375 62.730469 C 18.535156 63.039062 18.609375 63.359375 18.804688 63.609375 C 19 63.855469 19.296875 64 19.613281 64 L 24.773438 64 C 25.269531 64 25.699219 63.644531 25.789062 63.15625 L 27.871094 52.050781 L 29.953125 63.15625 C 30.046875 63.644531 30.472656 64 30.96875 64 L 36.128906 64 C 36.445312 64 36.742188 63.855469 36.9375 63.609375 C 37.132812 63.359375 37.207031 63.039062 37.132812 62.730469 L 33.03125 45.300781 L 33.03125 44.386719 L 37.160156 44.386719 C 37.472656 44.386719 37.765625 44.25 37.960938 44.007812 C 38.15625 43.769531 38.234375 43.457031 38.171875 43.152344 L 36.109375 32.832031 C 36.070312 32.628906 35.972656 32.445312 35.828125 32.304688 Z M 33.03125 42.324219 L 33.03125 35.097656 L 30.96875 35.097656 L 30.96875 45.417969 C 30.96875 45.5 30.976562 45.578125 30.996094 45.65625 L 34.824219 61.9375 L 31.824219 61.9375 L 28.886719 46.261719 C 28.792969 45.773438 28.367188 45.417969 27.871094 45.417969 C 27.375 45.417969 26.949219 45.773438 26.855469 46.261719 L 23.917969 61.9375 L 20.917969 61.9375 L 24.746094 45.65625 C 24.765625 45.578125 24.773438 45.5 24.773438 45.417969 L 24.773438 35.097656 L 22.710938 35.097656 L 22.710938 42.324219 L 19.839844 42.324219 L 21.597656 33.542969 L 23.136719 32 L 32.605469 32 L 34.148438 33.542969 L 35.902344 42.324219 Z M 33.03125 42.324219 "/>
<path style=" stroke:none;fill-rule:nonzero;fill:rgb(5.098039%,17.647059%,38.431373%);fill-opacity:1;" d="M 15.023438 45.59375 L 11.929688 43.527344 C 11.757812 43.414062 11.558594 43.355469 11.355469 43.355469 L 5.164062 43.355469 C 4.957031 43.355469 4.757812 43.414062 4.589844 43.527344 L 1.492188 45.59375 C 1.242188 45.757812 1.078125 46.027344 1.039062 46.324219 L 0.0078125 54.582031 C -0.0273438 54.875 0.0625 55.171875 0.257812 55.394531 C 0.457031 55.613281 0.738281 55.742188 1.035156 55.742188 L 3.652344 55.742188 L 3.101562 62.886719 C 3.078125 63.175781 3.175781 63.457031 3.371094 63.667969 C 3.570312 63.878906 3.84375 64 4.128906 64 L 12.386719 64 C 12.675781 64 12.949219 63.878906 13.144531 63.667969 C 13.339844 63.457031 13.441406 63.175781 13.417969 62.890625 L 12.867188 55.742188 L 15.484375 55.742188 C 15.78125 55.742188 16.0625 55.613281 16.257812 55.394531 C 16.453125 55.171875 16.546875 54.875 16.507812 54.582031 L 15.476562 46.324219 C 15.4375 46.027344 15.273438 45.757812 15.023438 45.59375 Z M 12.710938 53.675781 L 12.386719 49.46875 L 10.328125 49.625 L 11.273438 61.9375 L 9.292969 61.9375 L 9.292969 55.742188 L 7.226562 55.742188 L 7.226562 61.9375 L 5.246094 61.9375 L 6.191406 49.628906 L 4.132812 49.46875 L 3.808594 53.675781 L 2.203125 53.675781 L 3.03125 47.046875 L 5.476562 45.417969 L 11.042969 45.417969 L 13.488281 47.046875 L 14.316406 53.675781 Z M 12.710938 53.675781 "/>
<path style=" stroke:none;fill-rule:nonzero;fill:rgb(5.098039%,17.647059%,38.431373%);fill-opacity:1;" d="M 22.710938 22.710938 C 22.710938 25.554688 25.027344 27.871094 27.871094 27.871094 C 30.71875 27.871094 33.03125 25.554688 33.03125 22.710938 C 33.03125 19.863281 30.71875 17.550781 27.871094 17.550781 C 25.027344 17.550781 22.710938 19.863281 22.710938 22.710938 Z M 30.96875 22.710938 C 30.96875 24.417969 29.578125 25.808594 27.871094 25.808594 C 26.164062 25.808594 24.773438 24.417969 24.773438 22.710938 C 24.773438 21.003906 26.164062 19.613281 27.871094 19.613281 C 29.578125 19.613281 30.96875 21.003906 30.96875 22.710938 Z M 30.96875 22.710938 "/>
<path style=" stroke:none;fill-rule:nonzero;fill:rgb(5.098039%,17.647059%,38.431373%);fill-opacity:1;" d="M 4.128906 37.160156 C 4.128906 39.4375 5.980469 41.289062 8.257812 41.289062 C 10.535156 41.289062 12.386719 39.4375 12.386719 37.160156 C 12.386719 34.882812 10.535156 33.03125 8.257812 33.03125 C 5.980469 33.03125 4.128906 34.882812 4.128906 37.160156 Z M 10.324219 37.160156 C 10.324219 38.300781 9.398438 39.226562 8.257812 39.226562 C 7.121094 39.226562 6.195312 38.300781 6.195312 37.160156 C 6.195312 36.023438 7.121094 35.097656 8.257812 35.097656 C 9.398438 35.097656 10.324219 36.023438 10.324219 37.160156 Z M 10.324219 37.160156 "/>
<path style=" stroke:none;fill-rule:nonzero;fill:rgb(5.098039%,17.647059%,38.431373%);fill-opacity:1;" d="M 25.503906 7.527344 C 25.101562 7.125 24.449219 7.125 24.046875 7.527344 L 0.304688 31.269531 L 1.761719 32.730469 L 24.773438 9.71875 L 27.140625 12.085938 C 27.4375 12.378906 27.878906 12.46875 28.265625 12.308594 C 28.652344 12.148438 28.902344 11.773438 28.902344 11.355469 L 28.902344 1.03125 C 28.902344 0.464844 28.441406 0 27.871094 0 L 17.550781 0 C 17.132812 0 16.753906 0.253906 16.59375 0.636719 C 16.433594 1.023438 16.523438 1.46875 16.820312 1.761719 L 19.1875 4.128906 L 0.304688 23.011719 L 1.761719 24.472656 L 21.375 4.859375 C 21.777344 4.457031 21.777344 3.804688 21.375 3.398438 L 20.042969 2.066406 L 26.839844 2.066406 L 26.839844 8.863281 Z M 25.503906 7.527344 "/>
</g>
</svg>
