<?xml version="1.0" encoding="UTF-8"?>
<svg xmlns="http://www.w3.org/2000/svg" xmlns:xlink="http://www.w3.org/1999/xlink" width="64pt" height="64pt" viewBox="0 0 64 64" version="1.1">
<g id="surface1">
<path style=" stroke:none;fill-rule:nonzero;fill:rgb(5.098039%,17.647059%,38.431373%);fill-opacity:1;" d="M 38.398438 32 C 40.554688 32 42.324219 30.386719 42.609375 28.308594 L 46.507812 25.386719 C 46.976562 25.03125 47.074219 24.363281 46.71875 23.894531 C 46.367188 23.421875 45.699219 23.324219 45.226562 23.679688 L 42.507812 25.71875 C 42.101562 24.417969 40.898438 23.464844 39.46875 23.464844 L 35.199219 23.464844 C 33.4375 23.464844 32 24.902344 32 26.667969 C 32 24.902344 30.566406 23.464844 28.800781 23.464844 L 24.535156 23.464844 C 23.101562 23.464844 21.898438 24.417969 21.492188 25.71875 L 18.773438 23.679688 C 18.304688 23.328125 17.632812 23.421875 17.28125 23.894531 C 16.925781 24.363281 17.023438 25.03125 17.492188 25.386719 L 21.390625 28.308594 C 21.675781 30.386719 23.445312 32 25.601562 32 L 27.734375 32 C 30.085938 32 32 30.085938 32 27.734375 C 32 30.085938 33.914062 32 36.265625 32 Z M 29.867188 27.734375 C 29.867188 28.910156 28.910156 29.867188 27.734375 29.867188 L 25.601562 29.867188 C 24.425781 29.867188 23.464844 28.910156 23.464844 27.734375 L 23.464844 26.667969 C 23.464844 26.078125 23.945312 25.597656 24.535156 25.597656 L 28.800781 25.597656 C 29.390625 25.597656 29.867188 26.078125 29.867188 26.667969 Z M 34.132812 27.734375 L 34.132812 26.667969 C 34.132812 26.078125 34.609375 25.597656 35.199219 25.597656 L 39.464844 25.597656 C 40.054688 25.597656 40.535156 26.078125 40.535156 26.667969 L 40.535156 27.734375 C 40.535156 28.910156 39.574219 29.867188 38.398438 29.867188 L 36.265625 29.867188 C 35.089844 29.867188 34.132812 28.910156 34.132812 27.734375 Z M 34.132812 27.734375 "/>
<path style=" stroke:none;fill-rule:nonzero;fill:rgb(5.098039%,17.647059%,38.431373%);fill-opacity:1;" d="M 63.96875 62.671875 L 62.878906 58.328125 C 62.332031 56.683594 59.09375 51.394531 40.535156 51.25 L 40.535156 50.132812 C 40.535156 49.542969 40.058594 49.066406 39.46875 49.066406 C 38.878906 49.066406 38.398438 49.542969 38.398438 50.132812 L 38.398438 52.265625 C 38.398438 52.273438 38.40625 52.28125 38.40625 52.289062 C 38.40625 52.292969 38.398438 52.300781 38.398438 52.304688 C 38.394531 52.957031 38.179688 58.664062 32 58.664062 C 25.820312 58.664062 25.605469 52.917969 25.601562 52.265625 L 25.601562 50.132812 C 25.601562 49.542969 25.125 49.066406 24.535156 49.066406 C 23.945312 49.066406 23.46875 49.542969 23.46875 50.132812 L 23.46875 51.210938 C 9.644531 51.320312 2.722656 53.523438 1.097656 58.40625 L 0.03125 62.671875 C -0.113281 63.246094 0.238281 63.824219 0.808594 63.96875 C 1.378906 64.113281 1.957031 63.761719 2.101562 63.191406 L 3.144531 59.003906 C 4.382812 55.285156 11.058594 53.429688 23.539062 53.335938 C 23.925781 56.390625 26 60.800781 32 60.800781 C 37.996094 60.800781 40.074219 56.417969 40.460938 53.378906 C 55.082031 53.484375 60.164062 56.9375 60.832031 58.925781 L 61.898438 63.191406 C 62.019531 63.675781 62.453125 64 62.933594 64 C 63.015625 64 63.105469 63.988281 63.191406 63.96875 C 63.761719 63.824219 64.109375 63.246094 63.96875 62.671875 Z M 63.96875 62.671875 "/>
<path style=" stroke:none;fill-rule:nonzero;fill:rgb(5.098039%,17.647059%,38.431373%);fill-opacity:1;" d="M 7.328125 5.324219 L 31.863281 8.523438 C 31.910156 8.53125 31.953125 8.53125 32 8.53125 C 32.046875 8.53125 32.09375 8.53125 32.136719 8.523438 L 55.464844 5.480469 L 55.464844 9.183594 C 54.796875 9.9375 53.332031 11.8125 53.332031 13.867188 C 53.332031 16.214844 55.246094 17.066406 56.53125 17.066406 C 57.820312 17.066406 59.734375 16.214844 59.734375 13.867188 C 59.734375 11.8125 58.269531 9.9375 57.601562 9.183594 L 57.601562 4.265625 C 57.601562 4.125 57.570312 3.992188 57.519531 3.867188 C 57.5 3.824219 57.46875 3.789062 57.449219 3.75 C 57.40625 3.675781 57.363281 3.601562 57.304688 3.539062 C 57.269531 3.5 57.222656 3.472656 57.183594 3.441406 C 57.121094 3.394531 57.0625 3.347656 56.992188 3.3125 C 56.9375 3.285156 56.882812 3.273438 56.828125 3.257812 C 56.773438 3.242188 56.726562 3.214844 56.671875 3.207031 L 32.136719 0.0078125 C 32.046875 -0.00390625 31.953125 -0.00390625 31.863281 0.0078125 L 7.328125 3.207031 C 6.796875 3.277344 6.402344 3.730469 6.402344 4.265625 C 6.402344 4.800781 6.796875 5.253906 7.328125 5.324219 Z M 57.601562 13.867188 C 57.601562 14.71875 57.023438 14.917969 56.535156 14.933594 C 56.042969 14.917969 55.464844 14.71875 55.464844 13.867188 C 55.464844 12.980469 56.011719 11.992188 56.535156 11.265625 C 57.054688 11.992188 57.601562 12.980469 57.601562 13.867188 Z M 32 2.140625 L 48.285156 4.265625 L 32 6.390625 L 15.714844 4.265625 Z M 32 2.140625 "/>
<path style=" stroke:none;fill-rule:nonzero;fill:rgb(5.098039%,17.647059%,38.431373%);fill-opacity:1;" d="M 34.457031 38.699219 C 34.425781 38.730469 33.621094 39.464844 32 39.464844 C 30.402344 39.464844 29.597656 38.753906 29.542969 38.699219 C 29.128906 38.292969 28.460938 38.296875 28.046875 38.710938 C 27.628906 39.128906 27.628906 39.804688 28.046875 40.21875 C 28.1875 40.359375 29.496094 41.597656 32 41.597656 C 34.503906 41.597656 35.8125 40.359375 35.953125 40.21875 C 36.367188 39.808594 36.363281 39.148438 35.960938 38.730469 C 35.554688 38.3125 34.882812 38.300781 34.457031 38.699219 Z M 34.457031 38.699219 "/>
<path style=" stroke:none;fill-rule:nonzero;fill:rgb(5.098039%,17.647059%,38.431373%);fill-opacity:1;" d="M 14.933594 21.515625 C 13.691406 21.957031 12.800781 23.140625 12.800781 24.53125 L 12.800781 28.800781 C 12.800781 30.289062 13.820312 31.542969 15.199219 31.898438 C 15.769531 33.582031 17.347656 38.144531 18.246094 39.941406 C 19.941406 43.332031 24.742188 49.066406 32 49.066406 C 39.257812 49.066406 44.058594 43.332031 45.753906 39.941406 C 46.652344 38.144531 48.230469 33.582031 48.800781 31.898438 C 50.179688 31.542969 51.199219 30.289062 51.199219 28.800781 L 51.199219 24.53125 C 51.199219 23.140625 50.308594 21.957031 49.066406 21.515625 L 49.066406 20.265625 C 49.066406 19.675781 48.589844 19.199219 48 19.199219 C 47.410156 19.199219 46.933594 19.675781 46.933594 20.265625 L 46.933594 22.398438 C 46.933594 22.988281 47.410156 23.464844 48 23.464844 C 48.589844 23.464844 49.066406 23.945312 49.066406 24.53125 L 49.066406 28.800781 C 49.066406 29.386719 48.589844 29.867188 48 29.867188 C 47.539062 29.867188 47.132812 30.160156 46.988281 30.59375 C 46.964844 30.660156 44.867188 36.949219 43.847656 38.988281 C 43.683594 39.3125 39.785156 46.933594 32 46.933594 C 24.214844 46.933594 20.316406 39.3125 20.152344 38.988281 C 19.132812 36.949219 17.035156 30.660156 17.011719 30.59375 C 16.867188 30.160156 16.460938 29.867188 16 29.867188 C 15.410156 29.867188 14.933594 29.386719 14.933594 28.800781 L 14.933594 24.53125 C 14.933594 23.945312 15.410156 23.464844 16 23.464844 C 16.589844 23.464844 17.066406 22.988281 17.066406 22.398438 L 17.066406 20.265625 C 17.066406 19.675781 16.589844 19.199219 16 19.199219 C 15.410156 19.199219 14.933594 19.675781 14.933594 20.265625 Z M 14.933594 21.515625 "/>
<path style=" stroke:none;fill-rule:nonzero;fill:rgb(5.098039%,17.647059%,38.431373%);fill-opacity:1;" d="M 16 7.464844 C 15.410156 7.464844 14.933594 7.945312 14.933594 8.53125 L 14.933594 16 C 14.933594 16.402344 15.160156 16.773438 15.523438 16.953125 C 15.792969 17.089844 22.261719 20.265625 32 20.265625 C 41.738281 20.265625 48.207031 17.089844 48.476562 16.953125 C 48.839844 16.773438 49.066406 16.402344 49.066406 16 L 49.066406 8.53125 C 49.066406 7.945312 48.589844 7.464844 48 7.464844 C 47.410156 7.464844 46.933594 7.945312 46.933594 8.53125 L 46.933594 15.308594 C 45.167969 16.058594 39.585938 18.132812 32 18.132812 C 24.414062 18.132812 18.832031 16.058594 17.066406 15.308594 L 17.066406 8.53125 C 17.066406 7.945312 16.589844 7.464844 16 7.464844 Z M 16 7.464844 "/>
</g>
</svg>
