<?xml version="1.0" encoding="UTF-8"?>
<svg xmlns="http://www.w3.org/2000/svg" xmlns:xlink="http://www.w3.org/1999/xlink" width="64pt" height="64pt" viewBox="0 0 64 64" version="1.1">
<g id="surface1">
<path style=" stroke:none;fill-rule:nonzero;fill:rgb(5.098039%,17.647059%,38.431373%);fill-opacity:1;" d="M 62.96875 39.226562 C 63.539062 39.226562 64 38.761719 64 38.195312 L 64 23.742188 C 64 20.894531 61.683594 18.582031 58.839844 18.582031 L 34.066406 18.582031 C 33.496094 18.582031 33.03125 19.042969 33.03125 19.613281 L 33.03125 23.742188 C 33.03125 24.3125 33.496094 24.773438 34.066406 24.773438 L 48.515625 24.773438 L 48.515625 33.03125 L 42.324219 33.03125 C 40.617188 33.03125 39.226562 34.421875 39.226562 36.128906 L 39.226562 51.613281 L 24.773438 51.613281 L 24.773438 48.515625 C 24.773438 47.945312 24.3125 47.484375 23.742188 47.484375 L 12.386719 47.484375 L 12.386719 22.710938 L 29.933594 22.710938 C 30.503906 22.710938 30.96875 22.246094 30.96875 21.675781 L 30.96875 15.484375 L 40.257812 15.484375 C 40.660156 15.484375 41.023438 15.25 41.191406 14.890625 C 41.363281 14.527344 41.308594 14.097656 41.050781 13.789062 L 36.441406 8.257812 L 41.050781 2.726562 C 41.308594 2.417969 41.363281 1.988281 41.191406 1.628906 C 41.023438 1.265625 40.660156 1.03125 40.257812 1.03125 L 21.675781 1.03125 C 21.109375 1.03125 20.644531 1.496094 20.644531 2.066406 L 20.644531 8.257812 L 12.386719 8.257812 L 12.386719 6.832031 C 13.023438 6.105469 13.417969 5.167969 13.417969 4.128906 C 13.417969 1.851562 11.566406 0 9.289062 0 C 7.011719 0 5.160156 1.851562 5.160156 4.128906 C 5.160156 5.167969 5.558594 6.105469 6.195312 6.832031 L 6.195312 47.484375 L 1.03125 47.484375 C 0.460938 47.484375 0 47.945312 0 48.515625 L 0 62.96875 C 0 63.539062 0.460938 64 1.03125 64 L 62.96875 64 C 63.539062 64 64 63.539062 64 62.96875 L 64 56.773438 C 64 56.203125 63.539062 55.742188 62.96875 55.742188 L 59.871094 55.742188 L 59.871094 39.226562 Z M 34.304688 7.597656 C 33.984375 7.980469 33.984375 8.535156 34.304688 8.917969 L 38.054688 13.417969 L 30.96875 13.417969 L 30.96875 9.289062 C 30.96875 8.980469 30.824219 8.710938 30.609375 8.523438 L 30.617188 8.515625 L 24.425781 3.097656 L 38.054688 3.097656 Z M 22.710938 4.339844 L 27.1875 8.257812 L 22.710938 8.257812 Z M 28.902344 10.324219 L 28.902344 20.644531 L 12.386719 20.644531 L 12.386719 18.582031 L 18.582031 18.582031 L 18.582031 16.515625 L 12.386719 16.515625 L 12.386719 14.453125 L 18.582031 14.453125 L 18.582031 12.386719 L 12.386719 12.386719 L 12.386719 10.324219 Z M 9.289062 2.066406 C 10.429688 2.066406 11.355469 2.992188 11.355469 4.128906 C 11.355469 5.269531 10.429688 6.195312 9.289062 6.195312 C 8.152344 6.195312 7.226562 5.269531 7.226562 4.128906 C 7.226562 2.992188 8.152344 2.066406 9.289062 2.066406 Z M 8.257812 8.113281 C 8.589844 8.199219 8.933594 8.257812 9.289062 8.257812 C 9.648438 8.257812 9.992188 8.199219 10.324219 8.113281 L 10.324219 47.484375 L 8.257812 47.484375 Z M 61.933594 61.933594 L 2.066406 61.933594 L 2.066406 49.546875 L 22.710938 49.546875 L 22.710938 52.644531 C 22.710938 53.214844 23.171875 53.675781 23.742188 53.675781 L 45.417969 53.675781 L 45.417969 56.773438 C 45.417969 57.34375 45.882812 57.804688 46.453125 57.804688 L 61.933594 57.804688 Z M 53.675781 55.742188 L 47.484375 55.742188 L 47.484375 52.644531 C 47.484375 52.074219 47.019531 51.613281 46.453125 51.613281 L 45.417969 51.613281 L 45.417969 39.226562 L 53.675781 39.226562 Z M 55.742188 55.742188 L 55.742188 38.195312 C 55.742188 37.625 55.277344 37.160156 54.710938 37.160156 L 44.386719 37.160156 C 43.816406 37.160156 43.355469 37.625 43.355469 38.195312 L 43.355469 51.613281 L 41.289062 51.613281 L 41.289062 36.128906 C 41.289062 35.558594 41.753906 35.097656 42.324219 35.097656 L 49.546875 35.097656 C 50.117188 35.097656 50.582031 34.632812 50.582031 34.066406 L 50.582031 23.742188 C 50.582031 23.171875 50.117188 22.710938 49.546875 22.710938 L 35.097656 22.710938 L 35.097656 20.644531 L 58.839844 20.644531 C 60.546875 20.644531 61.933594 22.035156 61.933594 23.742188 L 61.933594 37.160156 L 59.871094 37.160156 L 59.871094 26.839844 L 57.804688 26.839844 L 57.804688 55.742188 Z M 55.742188 55.742188 "/>
<path style=" stroke:none;fill-rule:nonzero;fill:rgb(5.098039%,17.647059%,38.431373%);fill-opacity:1;" d="M 53.675781 16.515625 C 56.523438 16.515625 58.839844 14.199219 58.839844 11.355469 L 58.839844 9.289062 C 58.839844 6.445312 56.523438 4.128906 53.675781 4.128906 C 50.832031 4.128906 48.515625 6.445312 48.515625 9.289062 L 48.515625 11.355469 C 48.515625 14.199219 50.832031 16.515625 53.675781 16.515625 Z M 50.582031 9.289062 C 50.582031 7.582031 51.96875 6.195312 53.675781 6.195312 C 55.382812 6.195312 56.773438 7.582031 56.773438 9.289062 L 56.773438 11.355469 C 56.773438 13.0625 55.382812 14.453125 53.675781 14.453125 C 51.96875 14.453125 50.582031 13.0625 50.582031 11.355469 Z M 50.582031 9.289062 "/>
</g>
</svg>
