<?xml version="1.0" encoding="UTF-8"?><svg width="132" height="132" viewBox="0 0 132 132" xmlns="http://www.w3.org/2000/svg" xmlns:xlink="http://www.w3.org/1999/xlink"><svg width="66" height="66" viewBox="-1 -1 66 66" id="main_page--achievement" xmlns="http://www.w3.org/2000/svg"><g fill="#0d2d62"><path d="M51.613 12.387c3.414 0 6.196-2.778 6.196-6.192A6.202 6.202 0 0 0 51.613 0a6.2 6.2 0 0 0-6.191 6.195 6.198 6.198 0 0 0 6.191 6.192zm0-10.32a4.133 4.133 0 0 1 4.13 4.128 4.133 4.133 0 0 1-4.13 4.13 4.133 4.133 0 0 1-4.129-4.13 4.133 4.133 0 0 1 4.13-4.129zm0 0M61.93 18.46a1.036 1.036 0 0 0-.297-.608l-3.098-3.098a1.029 1.029 0 0 0-.726-.3H45.422c-.277 0-.54.108-.73.3l-3.098 3.098c-.164.164-.27.378-.297.609l-2.063 17.547c-.035.293.059.586.254.808.196.22.477.344.77.344h5.035l-2.965 25.688A1.033 1.033 0 0 0 43.355 64h6.196c.535 0 .98-.41 1.027-.945l1.035-12.43 1.035 12.43c.047.535.493.945 1.032.945h6.191a1.033 1.033 0 0 0 1.027-1.148L57.934 37.16h5.035c.293 0 .574-.125.77-.344.195-.218.288-.515.253-.808zm-4.121 16.638V20.645h-2.067v15.484c0 .039.004.078.008.117l2.965 25.691h-4.086L52.645 38.11a1.04 1.04 0 0 0-1.032-.949c-.535 0-.984.414-1.027.95l-1.988 23.828h-4.082l2.96-25.692a1.18 1.18 0 0 0 .008-.117V20.645h-2.062v14.453h-4l1.883-16.04 2.543-2.542h11.53l2.54 2.543 1.89 16.039zm0 0M35.828 32.305l-2.066-2.067a1.022 1.022 0 0 0-.73-.3H22.71c-.273 0-.54.105-.73.3l-2.063 2.067a.975.975 0 0 0-.285.527l-2.063 10.32c-.062.305.016.618.215.856.195.242.488.379.797.379h4.129v.914l-4.102 17.43A1.031 1.031 0 0 0 19.613 64h5.16c.497 0 .926-.355 1.016-.844l2.082-11.105 2.082 11.105c.094.489.52.844 1.016.844h5.16c.316 0 .613-.145.809-.39.195-.25.269-.57.195-.88L33.03 45.3v-.913h4.13c.312 0 .605-.137.8-.38.195-.237.273-.55.21-.855l-2.062-10.32a.995.995 0 0 0-.28-.527zm-2.797 10.02v-7.227H30.97v10.32c0 .082.008.16.027.238l3.828 16.282h-3l-2.937-15.676a1.037 1.037 0 0 0-1.016-.844c-.496 0-.922.355-1.016.844l-2.937 15.675h-3l3.828-16.28a.97.97 0 0 0 .027-.239v-10.32h-2.062v7.226H19.84l1.758-8.781L23.137 32h9.468l1.543 1.543 1.754 8.781zm0 0M15.023 45.594l-3.093-2.067a1.041 1.041 0 0 0-.575-.172h-6.19c-.208 0-.407.06-.575.172l-3.098 2.067c-.25.164-.414.433-.453.73L.008 54.582c-.035.293.054.59.25.813.199.218.48.347.777.347h2.617l-.55 7.145c-.024.289.074.57.27.781.198.21.472.332.757.332h8.258c.289 0 .562-.121.758-.332.195-.211.296-.492.273-.777l-.55-7.149h2.616a1.03 1.03 0 0 0 1.023-1.16l-1.03-8.258a1.035 1.035 0 0 0-.454-.73zm-2.312 8.082l-.324-4.207-2.059.156.945 12.313h-1.98v-6.196H7.227v6.196h-1.98l.944-12.31-2.058-.16-.324 4.208H2.203l.828-6.63 2.446-1.628h5.566l2.445 1.629.828 6.629zm0 0M22.71 22.71a5.168 5.168 0 0 0 5.161 5.161 5.166 5.166 0 0 0 5.16-5.16 5.163 5.163 0 0 0-5.16-5.16 5.166 5.166 0 0 0-5.16 5.16zm8.259 0a3.102 3.102 0 0 1-3.098 3.099 3.102 3.102 0 0 1-3.098-3.098 3.102 3.102 0 0 1 3.098-3.098 3.102 3.102 0 0 1 3.098 3.098zm0 0M4.129 37.16a4.133 4.133 0 0 0 4.129 4.13 4.133 4.133 0 0 0 4.129-4.13 4.133 4.133 0 0 0-4.13-4.129 4.133 4.133 0 0 0-4.128 4.13zm6.195 0c0 1.14-.926 2.067-2.066 2.067a2.066 2.066 0 1 1 2.066-2.066zm0 0M25.504 7.527a1.03 1.03 0 0 0-1.457 0L.305 31.27l1.457 1.46L24.773 9.72l2.368 2.367c.297.293.738.383 1.125.223a1.03 1.03 0 0 0 .636-.954V1.031c0-.566-.46-1.031-1.03-1.031H17.55a1.028 1.028 0 1 0-.73 1.762l2.366 2.367L.305 23.012l1.457 1.46L21.375 4.86a1.035 1.035 0 0 0 0-1.46l-1.332-1.333h6.797v6.797zm0 0"/></g></svg><svg width="66" height="66" viewBox="-1 -1 66 66" id="main_page--student" x="66" xmlns="http://www.w3.org/2000/svg"><g fill="#0d2d62"><path d="M38.398 32c2.157 0 3.926-1.613 4.211-3.691l3.899-2.922a1.066 1.066 0 0 0 .21-1.492 1.062 1.062 0 0 0-1.491-.215l-2.72 2.039c-.405-1.301-1.609-2.254-3.038-2.254h-4.27A3.207 3.207 0 0 0 32 26.668a3.204 3.204 0 0 0-3.2-3.203h-4.265a3.196 3.196 0 0 0-3.043 2.254l-2.719-2.04a1.066 1.066 0 0 0-1.28 1.708l3.898 2.922C21.676 30.387 23.445 32 25.6 32h2.133A4.271 4.271 0 0 0 32 27.734 4.271 4.271 0 0 0 36.266 32zm-8.53-4.266a2.136 2.136 0 0 1-2.134 2.133h-2.132a2.139 2.139 0 0 1-2.137-2.133v-1.066c0-.59.48-1.07 1.07-1.07h4.266c.59 0 1.066.48 1.066 1.07zm4.265 0v-1.066c0-.59.476-1.07 1.066-1.07h4.266c.59 0 1.07.48 1.07 1.07v1.066c0 1.176-.96 2.133-2.137 2.133h-2.132a2.136 2.136 0 0 1-2.133-2.133zm0 0M63.969 62.672l-1.09-4.344c-.547-1.644-3.785-6.933-22.344-7.078v-1.117a1.069 1.069 0 0 0-2.137 0v2.133c0 .007.008.015.008.023 0 .004-.008.012-.008.016-.003.652-.218 6.36-6.398 6.36s-6.395-5.747-6.398-6.4v-2.132a1.065 1.065 0 1 0-2.133 0v1.078c-13.824.11-20.746 2.312-22.371 7.195L.03 62.672a1.068 1.068 0 0 0 2.07.52l1.044-4.188c1.238-3.719 7.914-5.574 20.394-5.668C23.926 56.39 26 60.8 32 60.8c5.996 0 8.074-4.383 8.46-7.422 14.622.105 19.704 3.559 20.372 5.547l1.066 4.265a1.067 1.067 0 1 0 2.07-.52zm0 0M7.328 5.324l24.535 3.2c.047.007.09.007.137.007.047 0 .094 0 .137-.008L55.465 5.48v3.704c-.668.754-2.133 2.629-2.133 4.683 0 2.348 1.914 3.2 3.2 3.2 1.288 0 3.202-.852 3.202-3.2 0-2.055-1.464-3.93-2.132-4.683V4.266c0-.141-.032-.274-.082-.399-.02-.043-.051-.078-.07-.117-.044-.074-.087-.148-.145-.21-.035-.04-.082-.067-.121-.099-.063-.046-.121-.093-.192-.128-.054-.028-.11-.04-.164-.055-.055-.016-.101-.043-.156-.051L32.137.007a1.068 1.068 0 0 0-.274 0l-24.535 3.2c-.531.07-.926.523-.926 1.059 0 .535.395.988.926 1.058zm50.274 8.543c0 .852-.579 1.051-1.067 1.067-.492-.016-1.07-.215-1.07-1.067 0-.887.547-1.875 1.07-2.601.52.726 1.067 1.714 1.067 2.601zM32 2.141l16.285 2.125L32 6.39 15.715 4.266zm0 0M34.457 38.7c-.031.03-.836.765-2.457.765-1.598 0-2.402-.711-2.457-.766a1.063 1.063 0 0 0-1.496.012 1.063 1.063 0 0 0 0 1.508c.14.14 1.45 1.379 3.953 1.379 2.504 0 3.813-1.239 3.953-1.38.414-.41.41-1.07.008-1.488a1.077 1.077 0 0 0-1.504-.03zm0 0"/><path d="M14.934 21.516A3.203 3.203 0 0 0 12.8 24.53v4.27a3.202 3.202 0 0 0 2.398 3.097c.57 1.684 2.149 6.247 3.047 8.043 1.695 3.391 6.496 9.125 13.754 9.125 7.258 0 12.059-5.734 13.754-9.125.898-1.796 2.476-6.359 3.047-8.043a3.202 3.202 0 0 0 2.398-3.097v-4.27c0-1.39-.89-2.574-2.133-3.015v-1.25a1.065 1.065 0 1 0-2.132 0v2.132c0 .59.476 1.067 1.066 1.067.59 0 1.066.48 1.066 1.066v4.27c0 .586-.476 1.066-1.066 1.066-.46 0-.867.293-1.012.727-.023.066-2.12 6.355-3.14 8.394-.164.325-4.063 7.946-11.848 7.946-7.785 0-11.684-7.621-11.848-7.946-1.02-2.039-3.117-8.328-3.14-8.394A1.064 1.064 0 0 0 16 29.867c-.59 0-1.066-.48-1.066-1.066v-4.27c0-.586.476-1.066 1.066-1.066.59 0 1.066-.477 1.066-1.067v-2.132a1.065 1.065 0 1 0-2.132 0zm0 0"/><path d="M16 7.465c-.59 0-1.066.48-1.066 1.066V16c0 .402.226.773.59.953.269.137 6.738 3.313 16.476 3.313s16.207-3.176 16.477-3.313c.363-.18.59-.55.59-.953V8.531a1.068 1.068 0 0 0-2.133 0v6.778c-1.766.75-7.348 2.824-14.934 2.824-7.586 0-13.168-2.074-14.934-2.824V8.53c0-.586-.476-1.066-1.066-1.066zm0 0"/></g></svg><svg width="66" height="66" viewBox="-1 -1 66 66" id="main_page--success" y="66" xmlns="http://www.w3.org/2000/svg"><g fill="#0d2d62"><path d="M62.969 39.227c.57 0 1.031-.465 1.031-1.032V23.742a5.166 5.166 0 0 0-5.16-5.16H34.066c-.57 0-1.035.461-1.035 1.031v4.13c0 .57.465 1.03 1.035 1.03h14.45v8.258h-6.192a3.102 3.102 0 0 0-3.097 3.098v15.484H24.773v-3.097c0-.57-.46-1.032-1.03-1.032H12.386V22.711h17.547c.57 0 1.035-.465 1.035-1.035v-6.192h9.289c.402 0 .765-.234.933-.593a1.03 1.03 0 0 0-.14-1.102l-4.61-5.531 4.61-5.531c.258-.309.312-.739.14-1.098a1.028 1.028 0 0 0-.933-.598H21.676c-.567 0-1.031.465-1.031 1.035v6.192h-8.258V6.832a4.082 4.082 0 0 0 1.031-2.703A4.133 4.133 0 0 0 9.289 0 4.133 4.133 0 0 0 5.16 4.129c0 1.039.399 1.976 1.035 2.703v40.652H1.031c-.57 0-1.031.461-1.031 1.032v14.453C0 63.539.46 64 1.031 64H62.97c.57 0 1.031-.46 1.031-1.031v-6.196c0-.57-.46-1.03-1.031-1.03H59.87V39.226zM34.305 7.597c-.32.383-.32.938 0 1.321l3.75 4.5h-7.086V9.289c0-.309-.145-.578-.36-.766l.008-.007-6.191-5.418h13.629zM22.71 4.34l4.477 3.918H22.71zm6.191 5.984v10.32H12.387v-2.062h6.195v-2.066h-6.195v-2.063h6.195v-2.066h-6.195v-2.063zM9.29 2.066c1.14 0 2.066.926 2.066 2.063 0 1.14-.925 2.066-2.066 2.066a2.066 2.066 0 0 1 0-4.129zM8.258 8.113c.332.086.676.145 1.031.145.36 0 .703-.059 1.035-.145v39.371H8.258zm53.676 53.82H2.066V49.548h20.645v3.098c0 .57.46 1.03 1.031 1.03h21.676v3.098c0 .57.465 1.032 1.035 1.032h15.48zm-8.258-6.19h-6.192v-3.098c0-.57-.464-1.032-1.03-1.032h-1.036V39.227h8.258zm2.066 0V38.194c0-.57-.465-1.035-1.031-1.035H44.387c-.57 0-1.032.465-1.032 1.035v13.418H41.29V36.13c0-.57.465-1.031 1.035-1.031h7.223c.57 0 1.035-.465 1.035-1.032V23.742c0-.57-.465-1.031-1.035-1.031h-14.45v-2.066H58.84a3.1 3.1 0 0 1 3.094 3.097V37.16H59.87V26.84h-2.066v28.902zm0 0"/><path d="M53.676 16.516a5.169 5.169 0 0 0 5.164-5.16V9.288a5.169 5.169 0 0 0-5.164-5.16 5.168 5.168 0 0 0-5.16 5.16v2.066a5.168 5.168 0 0 0 5.16 5.16zm-3.094-7.227a3.096 3.096 0 0 1 6.191 0v2.066a3.102 3.102 0 0 1-3.097 3.098 3.1 3.1 0 0 1-3.094-3.098zm0 0"/></g></svg></svg>